<svg version="1.1" viewBox="0.0 0.0 960.0 720.0" fill="none" stroke="none" stroke-linecap="square" stroke-miterlimit="10" xmlns:xlink="http://www.w3.org/1999/xlink" xmlns="http://www.w3.org/2000/svg"><clipPath id="p.0"><path d="m0 0l960.0 0l0 720.0l-960.0 0l0 -720.0z" clip-rule="nonzero"/></clipPath><g clip-path="url(#p.0)"><path fill="#000000" fill-opacity="0.0" d="m0 0l960.0 0l0 720.0l-960.0 0z" fill-rule="evenodd"/><g filter="url(#shadowFilter-p.1)"><use xlink:href="#p.1" transform="matrix(1.0 0.0 0.0 1.0 0.0 2.0)"/></g><defs><filter id="shadowFilter-p.1" filterUnits="userSpaceOnUse"><feGaussianBlur in="SourceAlpha" stdDeviation="2.0" result="blur"/><feComponentTransfer in="blur" color-interpolation-filters="sRGB"><feFuncR type="linear" slope="0" intercept="0.0"/><feFuncG type="linear" slope="0" intercept="0.0"/><feFuncB type="linear" slope="0" intercept="0.0"/><feFuncA type="linear" slope="0.5" intercept="0"/></feComponentTransfer></filter></defs><g id="p.1"><path fill="#ffffff" d="m34.75924 308.31335c-1.2638702 0 -2.306553 0.41867065 -3.1280441 1.2559509c-0.82149124 0.8215027 -1.2322617 1.8641968 -1.2322617 3.1280518l0 93.17786c0 1.263855 0.41077042 2.306549 1.2322617 3.1280518c0.82149124 0.8215027 1.9115677 1.2322693 3.2702293 1.2322693c1.263874 0 2.3065567 -0.4107666 3.128048 -1.2322693c0.82149124 -0.8215027 1.2322578 -1.8641968 1.2322578 -3.1280518l0 -43.98221l41.944256 0c1.2638702 0 2.3065567 -0.38705444 3.1280441 -1.1611633c0.82149506 -0.7741394 1.2322617 -1.7931213 1.2322617 -3.0569763c0 -1.263855 -0.4107666 -2.282837 -1.2322617 -3.0569458c-0.8214874 -0.7741089 -1.8641739 -1.1611633 -3.1280441 -1.1611633l-41.944256 0l0 -36.54126l48.484715 0c1.2638779 0 2.3065567 -0.4107666 3.1280518 -1.2322693c0.83729553 -0.8373108 1.2559509 -1.8325806 1.2559509 -2.9858704c0 -1.263855 -0.4186554 -2.306549 -1.2559509 -3.1280518c-0.82151794 -0.8372803 -1.8642197 -1.2559509 -3.1280518 -1.2559509z" fill-rule="evenodd"/><path fill="#ffffff" d="m140.74554 342.24792c5.05542 0 9.597412 1.3349304 13.625961 4.0048523c4.028549 2.6698914 7.1802826 6.335083 9.455231 10.995544c2.2749481 4.644684 3.4124146 9.786987 3.4124146 15.426971c0 5.8137207 -1.1374664 11.074524 -3.4124146 15.78241c-2.2749481 4.707855 -5.4266815 8.3967285 -9.455231 11.06665c-4.028549 2.6698914 -8.570541 4.004822 -13.625961 4.004822c-5.13443 0 -9.715897 -1.3349304 -13.744438 -4.004822c-4.028549 -2.6698914 -7.164482 -6.358795 -9.407837 -11.06665c-2.2275467 -4.7078857 -3.3413239 -9.968689 -3.3413239 -15.78241c0 -5.8295593 1.1374741 -11.042969 3.4124146 -15.640259c2.2907486 -4.6130676 5.450386 -8.2308655 9.478928 -10.853363c4.0285416 -2.6224976 8.56263 -3.9337463 13.602257 -3.9337463zm-1.0189819 -8.151886c-6.303482 0 -12.054047 1.6509094 -17.251648 4.952759c-5.1976013 3.2860107 -9.30513 7.8674927 -12.322609 13.744415c-3.0016632 5.876953 -4.502487 12.504303 -4.502487 19.88208c0 7.3777466 1.4771271 14.028809 4.4313965 19.953125c2.9700546 5.908539 7.0538864 10.561127 12.251518 13.957733c5.1976013 3.3966064 11.0429535 5.0949097 17.53601 5.0949097c5.7347565 0 11.027145 -1.500824 15.877213 -4.502472c4.850052 -3.0016785 8.491547 -6.6905518 10.924454 -11.06665l0 9.763275c0 1.263855 0.41075134 2.306549 1.2322693 3.1280518c0.82151794 0.8215027 1.8641968 1.2322693 3.1280365 1.2322693c1.263855 0 2.3065338 -0.4107666 3.1280518 -1.2322693c0.82151794 -0.8215027 1.232254 -1.8641968 1.232254 -3.1280518l0 -65.52307c0 -1.263855 -0.41073608 -2.3302307 -1.232254 -3.1991577c-0.82151794 -0.8846741 -1.8641968 -1.3270264 -3.1280518 -1.3270264c-1.2638397 0 -2.3065186 0.4423523 -3.1280365 1.3270264c-0.82151794 0.868927 -1.2322693 1.9353027 -1.2322693 3.1991577l0 9.028687c-2.4329224 -4.5657043 -6.074417 -8.254578 -10.924454 -11.06665c-4.850067 -2.8121033 -10.18985 -4.2181396 -16.019394 -4.2181396z" fill-rule="evenodd"/><path fill="#ffffff" d="m233.06288 334.09604c-6.113907 0.0947876 -11.430008 1.9668884 -15.948303 5.616272c-4.5182953 3.6335754 -7.891205 8.215057 -10.118759 13.744446l0 -12.820251c0 -1.263855 -0.41073608 -2.306549 -1.232254 -3.1280518c-0.82151794 -0.8215027 -1.8641968 -1.2322693 -3.1280518 -1.2322693c-1.2638397 0 -2.3144226 0.4107666 -3.1517334 1.2322693c-0.82151794 0.8215027 -1.2322693 1.8641968 -1.2322693 3.1280518l0 65.23871c0 1.263855 0.41075134 2.306549 1.2322693 3.1280518c0.83729553 0.8215027 1.8878632 1.2322693 3.1517334 1.2322693c1.263855 0 2.3065338 -0.4107666 3.1280518 -1.2322693c0.82151794 -0.8215027 1.232254 -1.8641968 1.232254 -3.1280518l0 -35.972534c0 -4.470886 1.1374817 -8.886475 3.4124146 -13.246796c2.2907562 -4.3602905 5.2055206 -7.9227905 8.744308 -10.6874695c3.538803 -2.780487 7.109207 -4.170746 10.711197 -4.170746c1.2480621 0 2.575119 0.24487305 3.9811554 0.73461914c1.4218292 0.4897461 2.3697205 0.73461914 2.8436737 0.73461914c1.0742645 0 1.9984589 -0.4107666 2.772583 -1.2322693c0.77412415 -0.8373108 1.1611633 -1.9352722 1.1611633 -3.2939148c0 -1.5482178 -0.7741089 -2.7094116 -2.3223267 -3.4835205c-1.5482178 -0.7741089 -3.29393 -1.1611633 -5.2371063 -1.1611633z" fill-rule="evenodd"/><path fill="#ffffff" d="m257.22083 334.80698c-1.1532593 0 -2.1485596 0.3949585 -2.985855 1.184845c-0.82151794 0.7741089 -1.232254 1.7378235 -1.232254 2.8910828c0 1.1690674 0.41073608 2.1406555 1.232254 2.9147644c0.83729553 0.7741089 1.8325958 1.1611633 2.985855 1.1611633l36.54129 0l-43.08174 59.717255c-0.88468933 0.9636841 -1.3270569 2.0774536 -1.3270569 3.3413086c0 0.9636841 0.38705444 1.9115906 1.1611786 2.843689c0.78990173 0.9162903 1.8167725 1.3744507 3.0806427 1.3744507l47.29985 0c1.263855 0 2.282837 -0.38705444 3.0569458 -1.1611633c0.789917 -0.7741089 1.1848755 -1.745697 1.1848755 -2.914795c0 -1.1690674 -0.3949585 -2.1406555 -1.1848755 -2.9147644c-0.7741089 -0.7741089 -1.7930908 -1.1611633 -3.0569458 -1.1611633l-39.29016 0l43.223907 -59.693542c0.7741089 -1.0742798 1.1611938 -2.1406555 1.1611938 -3.1991272c0 -1.1690674 -0.38708496 -2.1880493 -1.1611938 -3.0569763c-0.7741089 -0.8846741 -1.745697 -1.3270264 -2.9147644 -1.3270264z" fill-rule="evenodd"/><path fill="#ffffff" d="m354.18967 342.24792c5.05542 0 9.597412 1.3349304 13.625946 4.0048523c4.0285645 2.6698914 7.180298 6.335083 9.455231 10.995544c2.2749634 4.644684 3.4124146 9.786987 3.4124146 15.426971c0 5.8137207 -1.1374512 11.074524 -3.4124146 15.78241c-2.2749329 4.707855 -5.4266663 8.3967285 -9.455231 11.06665c-4.028534 2.6698914 -8.570526 4.004822 -13.625946 4.004822c-5.13443 0 -9.715912 -1.3349304 -13.744446 -4.004822c-4.028534 -2.6698914 -7.1644897 -6.358795 -9.407837 -11.06665c-2.227539 -4.7078857 -3.3413086 -9.968689 -3.3413086 -15.78241c0 -5.8295593 1.1374512 -11.042969 3.412384 -15.640259c2.290741 -4.6130676 5.450409 -8.2308655 9.478943 -10.853363c4.028534 -2.6224976 8.562622 -3.9337463 13.602264 -3.9337463zm-1.0189819 -8.151886c-6.3034973 0 -12.054047 1.6509094 -17.251648 4.952759c-5.197632 3.2860107 -9.305176 7.8674927 -12.322601 13.744415c-3.0016785 5.876953 -4.5025024 12.504303 -4.5025024 19.88208c0 7.3777466 1.4771423 14.028809 4.4313965 19.953125c2.9700623 5.908539 7.0539246 10.561127 12.251526 13.957733c5.1976013 3.3966064 11.042938 5.0949097 17.53601 5.0949097c5.734741 0 11.027161 -1.500824 15.877197 -4.502472c4.8500366 -3.0016785 8.491547 -6.6905518 10.924469 -11.06665l0 9.763275c0 1.263855 0.4107666 2.306549 1.2322693 3.1280518c0.8215027 0.8215027 1.8641663 1.2322693 3.1280212 1.2322693c1.263855 0 2.306549 -0.4107666 3.1280518 -1.2322693c0.8215332 -0.8215027 1.2322693 -1.8641968 1.2322693 -3.1280518l0 -65.52307c0 -1.263855 -0.41073608 -2.3302307 -1.2322693 -3.1991577c-0.8215027 -0.8846741 -1.8641968 -1.3270264 -3.1280518 -1.3270264c-1.263855 0 -2.3065186 0.4423523 -3.1280212 1.3270264c-0.8215027 0.868927 -1.2322693 1.9353027 -1.2322693 3.1991577l0 9.028687c-2.4329224 -4.5657043 -6.074402 -8.254578 -10.924469 -11.06665c-4.8500366 -2.8121033 -10.18985 -4.2181396 -16.019379 -4.2181396z" fill-rule="evenodd"/><path fill="#ffffff" d="m445.17993 335.2572c-4.944824 0 -9.65271 1.3112488 -14.123596 3.9337769c-4.455078 2.6224976 -7.9938965 5.9243164 -10.616394 9.905457l0 -8.45993c0 -1.263855 -0.4107666 -2.306549 -1.2322693 -3.1280518c-0.8215027 -0.8215027 -1.8641968 -1.2322693 -3.1280518 -1.2322693c-1.263855 0 -2.3144226 0.4107666 -3.1517334 1.2322693c-0.8215027 0.8215027 -1.2322693 1.8641968 -1.2322693 3.1280518l0 65.23871c0 1.263855 0.4107666 2.306549 1.2322693 3.1280518c0.8373108 0.8215027 1.8878784 1.2322693 3.1517334 1.2322693c1.263855 0 2.306549 -0.4107666 3.1280518 -1.2322693c0.8215027 -0.8215027 1.2322693 -1.8641968 1.2322693 -3.1280518l0 -41.209625c0 -3.791565 1.0900879 -7.306671 3.2702332 -10.545319c2.1801453 -3.254425 5.0396423 -5.853241 8.57843 -7.796417c3.554596 -1.9431763 7.3224792 -2.9147644 11.303619 -2.9147644c6.208679 0 10.7664795 1.9668884 13.67334 5.900635c2.9226685 3.9337463 4.3840027 9.052368 4.3840027 15.3558655l0 41.209625c0 1.263855 0.4107666 2.306549 1.2322693 3.1280518c0.8215027 0.8215027 1.8641968 1.2322693 3.1280518 1.2322693c1.263855 0 2.306549 -0.4107666 3.1280518 -1.2322693c0.8215027 -0.8215027 1.2322388 -1.8641968 1.2322388 -3.1280518l0 -40.78308c0 -3.8705444 1.1138 -7.480438 3.341339 -10.829681c2.2433472 -3.3492126 5.1818237 -5.9954224 8.815399 -7.9385986c3.6493835 -1.9431763 7.5120544 -2.9147644 11.587982 -2.9147644c6.398285 0 11.121948 2.0142822 14.17099 6.042816c3.0648804 4.028534 4.59729 9.241943 4.59729 15.640228l0 40.78308c0 1.263855 0.4107666 2.306549 1.2322388 3.1280518c0.8373413 0.8215027 1.8879395 1.2322693 3.1517944 1.2322693c1.263855 0 2.3065186 -0.4107666 3.1279907 -1.2322693c0.8215332 -0.8215027 1.2322998 -1.8641968 1.2322998 -3.1280518l0 -41.209625c0 -8.831207 -2.0616455 -15.940399 -6.1849976 -21.327606c-4.123352 -5.3871765 -10.553223 -8.08078 -19.289642 -8.08078c-5.529358 0 -11.011353 1.6035156 -16.445923 4.8105774c-5.434601 3.1912231 -9.170868 6.9275208 -11.208832 11.208832c-1.7536011 -5.2450256 -4.6683655 -9.226166 -8.744324 -11.943451c-4.0759277 -2.7173157 -8.933868 -4.0759583 -14.573853 -4.0759583z" fill-rule="evenodd"/><path fill="#ffffff" d="m590.6492 308.31335c-1.1690674 0 -2.1643066 0.3949585 -2.9858398 1.1848755c-0.82147217 0.7741089 -1.2322388 1.8404846 -1.2322388 3.1991272l0 93.60443c0 1.0742798 0.38702393 1.9984741 1.1611328 2.772583c0.7741089 0.7741089 1.7457275 1.1611633 2.914795 1.1611633c1.0584717 0 1.9984741 -0.38705444 2.8200073 -1.1611633c0.8372803 -0.7741089 1.2559204 -1.6983032 1.2559204 -2.772583l0 -81.68466l62.442444 84.17285c0.3949585 0.3791809 0.90838623 0.71884155 1.5403442 1.0190125c0.631897 0.2843628 1.2875366 0.4265442 1.9668579 0.4265442c1.263855 0 2.3302612 -0.4107666 3.1991577 -1.2322693c0.8688965 -0.8215027 1.3033447 -1.9668884 1.3033447 -3.4360962l0 -93.17786c0 -1.1532898 -0.36340332 -2.1169739 -1.0900879 -2.8910828c-0.7266846 -0.789917 -1.7219849 -1.1848755 -2.9858398 -1.1848755c-1.1532593 0 -2.124878 0.3949585 -2.914795 1.1848755c-0.7741089 0.7741089 -1.1611938 1.737793 -1.1611938 2.8910828l0 82.111206l-62.75049 -84.575745c-0.7741089 -1.0742798 -1.9352417 -1.6114197 -3.4835205 -1.6114197z" fill-rule="evenodd"/><path fill="#ffffff" d="m722.1179 342.24792c5.244995 0 10.023926 1.3349304 14.336853 4.0048523c4.3287354 2.6698914 7.70166 6.335083 10.118774 10.995544c2.4329224 4.644684 3.649353 9.881775 3.649353 15.711334c0 5.829529 -1.2164307 11.074554 -3.649353 15.735016c-2.4171143 4.6604614 -5.790039 8.301941 -10.118774 10.924469c-4.3129272 2.6066895 -9.091858 3.9100342 -14.336853 3.9100342c-5.244995 0 -10.008179 -1.3349304 -14.28949 -4.004822c-4.265503 -2.6698914 -7.6384277 -6.3272095 -10.118774 -10.971863c-2.4645386 -4.6604614 -3.6967773 -9.858093 -3.6967773 -15.592834c0 -5.8295593 1.2322388 -11.06665 3.6967773 -15.711334c2.4803467 -4.6604614 5.8532715 -8.325653 10.118774 -10.995544c4.281311 -2.6699219 9.044495 -4.0048523 14.28949 -4.0048523zm0 -8.151886c-6.8880615 0 -13.152039 1.6983032 -18.791992 5.09494c-5.6241455 3.3966064 -10.039734 8.057068 -13.246826 13.981415c-3.2070312 5.9085083 -4.810547 12.504272 -4.810547 19.787262c0 7.282959 1.6035156 13.886627 4.810547 19.810944c3.2070312 5.924347 7.6226196 10.561096 13.246826 13.910339c5.6399536 3.3334045 11.903931 5.000122 18.791992 5.000122c6.8880005 0 13.144104 -1.6667175 18.76825 -5.000122c5.6399536 -3.3492432 10.055542 -7.9859924 13.246826 -13.910339c3.2070312 -5.9243164 4.810547 -12.527985 4.810547 -19.810944c0 -7.2829895 -1.6035156 -13.878723 -4.810547 -19.787262c-3.1912842 -5.924347 -7.6068726 -10.584808 -13.246826 -13.981415c-5.6241455 -3.396637 -11.880249 -5.09494 -18.76825 -5.09494z" fill-rule="evenodd"/><path fill="#ffffff" d="m808.7477 342.24792c5.244995 0 10.023926 1.3349304 14.336853 4.0048523c4.3287354 2.6698914 7.70166 6.335083 10.118774 10.995544c2.4329224 4.644684 3.649353 9.881775 3.649353 15.711334c0 5.829529 -1.2164307 11.074554 -3.649353 15.735016c-2.4171143 4.6604614 -5.790039 8.301941 -10.118774 10.924469c-4.3129272 2.6066895 -9.091858 3.9100342 -14.336853 3.9100342c-5.244995 0 -10.008179 -1.3349304 -14.28949 -4.004822c-4.265503 -2.6698914 -7.6384277 -6.3272095 -10.118774 -10.971863c-2.4645386 -4.6604614 -3.6967773 -9.858093 -3.6967773 -15.592834c0 -5.8295593 1.2322388 -11.06665 3.6967773 -15.711334c2.4803467 -4.6604614 5.8532715 -8.325653 10.118774 -10.995544c4.281311 -2.6699219 9.044495 -4.0048523 14.28949 -4.0048523zm0 -8.151886c-6.8880615 0 -13.152039 1.6983032 -18.791992 5.09494c-5.6241455 3.3966064 -10.039734 8.057068 -13.246826 13.981415c-3.2070312 5.9085083 -4.810547 12.504272 -4.810547 19.787262c0 7.282959 1.6035156 13.886627 4.810547 19.810944c3.2070312 5.924347 7.6226196 10.561096 13.246826 13.910339c5.6399536 3.3334045 11.903931 5.000122 18.791992 5.000122c6.8880005 0 13.144104 -1.6667175 18.76825 -5.000122c5.6399536 -3.3492432 10.055542 -7.9859924 13.246826 -13.910339c3.2070312 -5.9243164 4.810547 -12.527985 4.810547 -19.810944c0 -7.2829895 -1.6035156 -13.878723 -4.810547 -19.787262c-3.1912842 -5.924347 -7.6068726 -10.584808 -13.246826 -13.981415c-5.6241455 -3.396637 -11.880249 -5.09494 -18.76825 -5.09494z" fill-rule="evenodd"/><path fill="#ffffff" d="m898.29224 334.09604c-6.1138916 0.0947876 -11.429993 1.9668884 -15.948303 5.616272c-4.5182495 3.6335754 -7.8911743 8.215057 -10.118713 13.744446l0 -12.820251c0 -1.263855 -0.41082764 -2.306549 -1.2322998 -3.1280518c-0.82147217 -0.8215027 -1.8641357 -1.2322693 -3.1280518 -1.2322693c-1.263855 0 -2.3144531 0.4107666 -3.1517334 1.2322693c-0.8215332 0.8215027 -1.2322388 1.8641968 -1.2322388 3.1280518l0 65.23871c0 1.263855 0.41070557 2.306549 1.2322388 3.1280518c0.8372803 0.8215027 1.8878784 1.2322693 3.1517334 1.2322693c1.263916 0 2.3065796 -0.4107666 3.1280518 -1.2322693c0.82147217 -0.8215027 1.2322998 -1.8641968 1.2322998 -3.1280518l0 -35.972534c0 -4.470886 1.1374512 -8.886475 3.4124146 -13.246796c2.2907104 -4.3602905 5.2054443 -7.9227905 8.744263 -10.6874695c3.5388184 -2.780487 7.109192 -4.170746 10.711182 -4.170746c1.2480469 0 2.5751343 0.24487305 3.9812012 0.73461914c1.421814 0.4897461 2.36969 0.73461914 2.843628 0.73461914c1.0743408 0 1.9985352 -0.4107666 2.772583 -1.2322693c0.7741089 -0.8373108 1.1611938 -1.9352722 1.1611938 -3.2939148c0 -1.5482178 -0.7741089 -2.7094116 -2.3223267 -3.4835205c-1.5482788 -0.7741089 -3.2939453 -1.1611633 -5.2371216 -1.1611633z" fill-rule="evenodd"/><path fill="#ffffff" d="m923.75354 312.3893c-1.9431763 0 -3.475586 0.46603394 -4.59729 1.3981323c-1.105835 0.9162903 -1.6588135 2.2512512 -1.6588135 4.0048523l0 1.4455261c0 1.7536011 0.52923584 3.088562 1.5877075 4.0048523c1.0742798 0.9162903 2.5830078 1.3744507 4.526184 1.3744507c1.9431763 0 3.4203491 -0.4581604 4.4313965 -1.3744507c1.0269165 -0.9162903 1.5403442 -2.2512512 1.5403442 -4.0048523l0 -1.4455261c0 -3.6019897 -1.9431763 -5.4029846 -5.829529 -5.4029846zm-0.14221191 22.13327c-1.2480469 0 -2.2907104 0.41867065 -3.1280518 1.2559814c-0.82147217 0.8215027 -1.2322388 1.8562927 -1.2322388 3.1043396l0 66.99231c0 1.263855 0.4107666 2.306549 1.2322388 3.1280518c0.8373413 0.8215027 1.8800049 1.2322693 3.1280518 1.2322693c1.263916 0 2.3065796 -0.4107666 3.1280518 -1.2322693c0.8373413 -0.8215027 1.2559814 -1.8641968 1.2559814 -3.1280518l0 -66.99231c0 -1.2480774 -0.41864014 -2.282837 -1.2559814 -3.1043396c-0.82147217 -0.8373108 -1.8641357 -1.2559814 -3.1280518 -1.2559814z" fill-rule="evenodd"/><path stroke="#ffffff" stroke-width="3.0" stroke-linejoin="round" stroke-linecap="butt" d="m34.75924 308.31335c-1.2638702 0 -2.306553 0.41867065 -3.1280441 1.2559509c-0.82149124 0.8215027 -1.2322617 1.8641968 -1.2322617 3.1280518l0 93.17786c0 1.263855 0.41077042 2.306549 1.2322617 3.1280518c0.82149124 0.8215027 1.9115677 1.2322693 3.2702293 1.2322693c1.263874 0 2.3065567 -0.4107666 3.128048 -1.2322693c0.82149124 -0.8215027 1.2322578 -1.8641968 1.2322578 -3.1280518l0 -43.98221l41.944256 0c1.2638702 0 2.3065567 -0.38705444 3.1280441 -1.1611633c0.82149506 -0.7741394 1.2322617 -1.7931213 1.2322617 -3.0569763c0 -1.263855 -0.4107666 -2.282837 -1.2322617 -3.0569458c-0.8214874 -0.7741089 -1.8641739 -1.1611633 -3.1280441 -1.1611633l-41.944256 0l0 -36.54126l48.484715 0c1.2638779 0 2.3065567 -0.4107666 3.1280518 -1.2322693c0.83729553 -0.8373108 1.2559509 -1.8325806 1.2559509 -2.9858704c0 -1.263855 -0.4186554 -2.306549 -1.2559509 -3.1280518c-0.82151794 -0.8372803 -1.8642197 -1.2559509 -3.1280518 -1.2559509z" fill-rule="evenodd"/><path stroke="#ffffff" stroke-width="3.0" stroke-linejoin="round" stroke-linecap="butt" d="m140.74554 342.24792c5.05542 0 9.597412 1.3349304 13.625961 4.0048523c4.028549 2.6698914 7.1802826 6.335083 9.455231 10.995544c2.2749481 4.644684 3.4124146 9.786987 3.4124146 15.426971c0 5.8137207 -1.1374664 11.074524 -3.4124146 15.78241c-2.2749481 4.707855 -5.4266815 8.3967285 -9.455231 11.06665c-4.028549 2.6698914 -8.570541 4.004822 -13.625961 4.004822c-5.13443 0 -9.715897 -1.3349304 -13.744438 -4.004822c-4.028549 -2.6698914 -7.164482 -6.358795 -9.407837 -11.06665c-2.2275467 -4.7078857 -3.3413239 -9.968689 -3.3413239 -15.78241c0 -5.8295593 1.1374741 -11.042969 3.4124146 -15.640259c2.2907486 -4.6130676 5.450386 -8.2308655 9.478928 -10.853363c4.0285416 -2.6224976 8.56263 -3.9337463 13.602257 -3.9337463zm-1.0189819 -8.151886c-6.303482 0 -12.054047 1.6509094 -17.251648 4.952759c-5.1976013 3.2860107 -9.30513 7.8674927 -12.322609 13.744415c-3.0016632 5.876953 -4.502487 12.504303 -4.502487 19.88208c0 7.3777466 1.4771271 14.028809 4.4313965 19.953125c2.9700546 5.908539 7.0538864 10.561127 12.251518 13.957733c5.1976013 3.3966064 11.0429535 5.0949097 17.53601 5.0949097c5.7347565 0 11.027145 -1.500824 15.877213 -4.502472c4.850052 -3.0016785 8.491547 -6.6905518 10.924454 -11.06665l0 9.763275c0 1.263855 0.41075134 2.306549 1.2322693 3.1280518c0.82151794 0.8215027 1.8641968 1.2322693 3.1280365 1.2322693c1.263855 0 2.3065338 -0.4107666 3.1280518 -1.2322693c0.82151794 -0.8215027 1.232254 -1.8641968 1.232254 -3.1280518l0 -65.52307c0 -1.263855 -0.41073608 -2.3302307 -1.232254 -3.1991577c-0.82151794 -0.8846741 -1.8641968 -1.3270264 -3.1280518 -1.3270264c-1.2638397 0 -2.3065186 0.4423523 -3.1280365 1.3270264c-0.82151794 0.868927 -1.2322693 1.9353027 -1.2322693 3.1991577l0 9.028687c-2.4329224 -4.5657043 -6.074417 -8.254578 -10.924454 -11.06665c-4.850067 -2.8121033 -10.18985 -4.2181396 -16.019394 -4.2181396z" fill-rule="evenodd"/><path stroke="#ffffff" stroke-width="3.0" stroke-linejoin="round" stroke-linecap="butt" d="m233.06288 334.09604c-6.113907 0.0947876 -11.430008 1.9668884 -15.948303 5.616272c-4.5182953 3.6335754 -7.891205 8.215057 -10.118759 13.744446l0 -12.820251c0 -1.263855 -0.41073608 -2.306549 -1.232254 -3.1280518c-0.82151794 -0.8215027 -1.8641968 -1.2322693 -3.1280518 -1.2322693c-1.2638397 0 -2.3144226 0.4107666 -3.1517334 1.2322693c-0.82151794 0.8215027 -1.2322693 1.8641968 -1.2322693 3.1280518l0 65.23871c0 1.263855 0.41075134 2.306549 1.2322693 3.1280518c0.83729553 0.8215027 1.8878632 1.2322693 3.1517334 1.2322693c1.263855 0 2.3065338 -0.4107666 3.1280518 -1.2322693c0.82151794 -0.8215027 1.232254 -1.8641968 1.232254 -3.1280518l0 -35.972534c0 -4.470886 1.1374817 -8.886475 3.4124146 -13.246796c2.2907562 -4.3602905 5.2055206 -7.9227905 8.744308 -10.6874695c3.538803 -2.780487 7.109207 -4.170746 10.711197 -4.170746c1.2480621 0 2.575119 0.24487305 3.9811554 0.73461914c1.4218292 0.4897461 2.3697205 0.73461914 2.8436737 0.73461914c1.0742645 0 1.9984589 -0.4107666 2.772583 -1.2322693c0.77412415 -0.8373108 1.1611633 -1.9352722 1.1611633 -3.2939148c0 -1.5482178 -0.7741089 -2.7094116 -2.3223267 -3.4835205c-1.5482178 -0.7741089 -3.29393 -1.1611633 -5.2371063 -1.1611633z" fill-rule="evenodd"/><path stroke="#ffffff" stroke-width="3.0" stroke-linejoin="round" stroke-linecap="butt" d="m257.22083 334.80698c-1.1532593 0 -2.1485596 0.3949585 -2.985855 1.184845c-0.82151794 0.7741089 -1.232254 1.7378235 -1.232254 2.8910828c0 1.1690674 0.41073608 2.1406555 1.232254 2.9147644c0.83729553 0.7741089 1.8325958 1.1611633 2.985855 1.1611633l36.54129 0l-43.08174 59.717255c-0.88468933 0.9636841 -1.3270569 2.0774536 -1.3270569 3.3413086c0 0.9636841 0.38705444 1.9115906 1.1611786 2.843689c0.78990173 0.9162903 1.8167725 1.3744507 3.0806427 1.3744507l47.29985 0c1.263855 0 2.282837 -0.38705444 3.0569458 -1.1611633c0.789917 -0.7741089 1.1848755 -1.745697 1.1848755 -2.914795c0 -1.1690674 -0.3949585 -2.1406555 -1.1848755 -2.9147644c-0.7741089 -0.7741089 -1.7930908 -1.1611633 -3.0569458 -1.1611633l-39.29016 0l43.223907 -59.693542c0.7741089 -1.0742798 1.1611938 -2.1406555 1.1611938 -3.1991272c0 -1.1690674 -0.38708496 -2.1880493 -1.1611938 -3.0569763c-0.7741089 -0.8846741 -1.745697 -1.3270264 -2.9147644 -1.3270264z" fill-rule="evenodd"/><path stroke="#ffffff" stroke-width="3.0" stroke-linejoin="round" stroke-linecap="butt" d="m354.18967 342.24792c5.05542 0 9.597412 1.3349304 13.625946 4.0048523c4.0285645 2.6698914 7.180298 6.335083 9.455231 10.995544c2.2749634 4.644684 3.4124146 9.786987 3.4124146 15.426971c0 5.8137207 -1.1374512 11.074524 -3.4124146 15.78241c-2.2749329 4.707855 -5.4266663 8.3967285 -9.455231 11.06665c-4.028534 2.6698914 -8.570526 4.004822 -13.625946 4.004822c-5.13443 0 -9.715912 -1.3349304 -13.744446 -4.004822c-4.028534 -2.6698914 -7.1644897 -6.358795 -9.407837 -11.06665c-2.227539 -4.7078857 -3.3413086 -9.968689 -3.3413086 -15.78241c0 -5.8295593 1.1374512 -11.042969 3.412384 -15.640259c2.290741 -4.6130676 5.450409 -8.2308655 9.478943 -10.853363c4.028534 -2.6224976 8.562622 -3.9337463 13.602264 -3.9337463zm-1.0189819 -8.151886c-6.3034973 0 -12.054047 1.6509094 -17.251648 4.952759c-5.197632 3.2860107 -9.305176 7.8674927 -12.322601 13.744415c-3.0016785 5.876953 -4.5025024 12.504303 -4.5025024 19.88208c0 7.3777466 1.4771423 14.028809 4.4313965 19.953125c2.9700623 5.908539 7.0539246 10.561127 12.251526 13.957733c5.1976013 3.3966064 11.042938 5.0949097 17.53601 5.0949097c5.734741 0 11.027161 -1.500824 15.877197 -4.502472c4.8500366 -3.0016785 8.491547 -6.6905518 10.924469 -11.06665l0 9.763275c0 1.263855 0.4107666 2.306549 1.2322693 3.1280518c0.8215027 0.8215027 1.8641663 1.2322693 3.1280212 1.2322693c1.263855 0 2.306549 -0.4107666 3.1280518 -1.2322693c0.8215332 -0.8215027 1.2322693 -1.8641968 1.2322693 -3.1280518l0 -65.52307c0 -1.263855 -0.41073608 -2.3302307 -1.2322693 -3.1991577c-0.8215027 -0.8846741 -1.8641968 -1.3270264 -3.1280518 -1.3270264c-1.263855 0 -2.3065186 0.4423523 -3.1280212 1.3270264c-0.8215027 0.868927 -1.2322693 1.9353027 -1.2322693 3.1991577l0 9.028687c-2.4329224 -4.5657043 -6.074402 -8.254578 -10.924469 -11.06665c-4.8500366 -2.8121033 -10.18985 -4.2181396 -16.019379 -4.2181396z" fill-rule="evenodd"/><path stroke="#ffffff" stroke-width="3.0" stroke-linejoin="round" stroke-linecap="butt" d="m445.17993 335.2572c-4.944824 0 -9.65271 1.3112488 -14.123596 3.9337769c-4.455078 2.6224976 -7.9938965 5.9243164 -10.616394 9.905457l0 -8.45993c0 -1.263855 -0.4107666 -2.306549 -1.2322693 -3.1280518c-0.8215027 -0.8215027 -1.8641968 -1.2322693 -3.1280518 -1.2322693c-1.263855 0 -2.3144226 0.4107666 -3.1517334 1.2322693c-0.8215027 0.8215027 -1.2322693 1.8641968 -1.2322693 3.1280518l0 65.23871c0 1.263855 0.4107666 2.306549 1.2322693 3.1280518c0.8373108 0.8215027 1.8878784 1.2322693 3.1517334 1.2322693c1.263855 0 2.306549 -0.4107666 3.1280518 -1.2322693c0.8215027 -0.8215027 1.2322693 -1.8641968 1.2322693 -3.1280518l0 -41.209625c0 -3.791565 1.0900879 -7.306671 3.2702332 -10.545319c2.1801453 -3.254425 5.0396423 -5.853241 8.57843 -7.796417c3.554596 -1.9431763 7.3224792 -2.9147644 11.303619 -2.9147644c6.208679 0 10.7664795 1.9668884 13.67334 5.900635c2.9226685 3.9337463 4.3840027 9.052368 4.3840027 15.3558655l0 41.209625c0 1.263855 0.4107666 2.306549 1.2322693 3.1280518c0.8215027 0.8215027 1.8641968 1.2322693 3.1280518 1.2322693c1.263855 0 2.306549 -0.4107666 3.1280518 -1.2322693c0.8215027 -0.8215027 1.2322388 -1.8641968 1.2322388 -3.1280518l0 -40.78308c0 -3.8705444 1.1138 -7.480438 3.341339 -10.829681c2.2433472 -3.3492126 5.1818237 -5.9954224 8.815399 -7.9385986c3.6493835 -1.9431763 7.5120544 -2.9147644 11.587982 -2.9147644c6.398285 0 11.121948 2.0142822 14.17099 6.042816c3.0648804 4.028534 4.59729 9.241943 4.59729 15.640228l0 40.78308c0 1.263855 0.4107666 2.306549 1.2322388 3.1280518c0.8373413 0.8215027 1.8879395 1.2322693 3.1517944 1.2322693c1.263855 0 2.3065186 -0.4107666 3.1279907 -1.2322693c0.8215332 -0.8215027 1.2322998 -1.8641968 1.2322998 -3.1280518l0 -41.209625c0 -8.831207 -2.0616455 -15.940399 -6.1849976 -21.327606c-4.123352 -5.3871765 -10.553223 -8.08078 -19.289642 -8.08078c-5.529358 0 -11.011353 1.6035156 -16.445923 4.8105774c-5.434601 3.1912231 -9.170868 6.9275208 -11.208832 11.208832c-1.7536011 -5.2450256 -4.6683655 -9.226166 -8.744324 -11.943451c-4.0759277 -2.7173157 -8.933868 -4.0759583 -14.573853 -4.0759583z" fill-rule="evenodd"/><path stroke="#ffffff" stroke-width="3.0" stroke-linejoin="round" stroke-linecap="butt" d="m590.6492 308.31335c-1.1690674 0 -2.1643066 0.3949585 -2.9858398 1.1848755c-0.82147217 0.7741089 -1.2322388 1.8404846 -1.2322388 3.1991272l0 93.60443c0 1.0742798 0.38702393 1.9984741 1.1611328 2.772583c0.7741089 0.7741089 1.7457275 1.1611633 2.914795 1.1611633c1.0584717 0 1.9984741 -0.38705444 2.8200073 -1.1611633c0.8372803 -0.7741089 1.2559204 -1.6983032 1.2559204 -2.772583l0 -81.68466l62.442444 84.17285c0.3949585 0.3791809 0.90838623 0.71884155 1.5403442 1.0190125c0.631897 0.2843628 1.2875366 0.4265442 1.9668579 0.4265442c1.263855 0 2.3302612 -0.4107666 3.1991577 -1.2322693c0.8688965 -0.8215027 1.3033447 -1.9668884 1.3033447 -3.4360962l0 -93.17786c0 -1.1532898 -0.36340332 -2.1169739 -1.0900879 -2.8910828c-0.7266846 -0.789917 -1.7219849 -1.1848755 -2.9858398 -1.1848755c-1.1532593 0 -2.124878 0.3949585 -2.914795 1.1848755c-0.7741089 0.7741089 -1.1611938 1.737793 -1.1611938 2.8910828l0 82.111206l-62.75049 -84.575745c-0.7741089 -1.0742798 -1.9352417 -1.6114197 -3.4835205 -1.6114197z" fill-rule="evenodd"/><path stroke="#ffffff" stroke-width="3.0" stroke-linejoin="round" stroke-linecap="butt" d="m722.1179 342.24792c5.244995 0 10.023926 1.3349304 14.336853 4.0048523c4.3287354 2.6698914 7.70166 6.335083 10.118774 10.995544c2.4329224 4.644684 3.649353 9.881775 3.649353 15.711334c0 5.829529 -1.2164307 11.074554 -3.649353 15.735016c-2.4171143 4.6604614 -5.790039 8.301941 -10.118774 10.924469c-4.3129272 2.6066895 -9.091858 3.9100342 -14.336853 3.9100342c-5.244995 0 -10.008179 -1.3349304 -14.28949 -4.004822c-4.265503 -2.6698914 -7.6384277 -6.3272095 -10.118774 -10.971863c-2.4645386 -4.6604614 -3.6967773 -9.858093 -3.6967773 -15.592834c0 -5.8295593 1.2322388 -11.06665 3.6967773 -15.711334c2.4803467 -4.6604614 5.8532715 -8.325653 10.118774 -10.995544c4.281311 -2.6699219 9.044495 -4.0048523 14.28949 -4.0048523zm0 -8.151886c-6.8880615 0 -13.152039 1.6983032 -18.791992 5.09494c-5.6241455 3.3966064 -10.039734 8.057068 -13.246826 13.981415c-3.2070312 5.9085083 -4.810547 12.504272 -4.810547 19.787262c0 7.282959 1.6035156 13.886627 4.810547 19.810944c3.2070312 5.924347 7.6226196 10.561096 13.246826 13.910339c5.6399536 3.3334045 11.903931 5.000122 18.791992 5.000122c6.8880005 0 13.144104 -1.6667175 18.76825 -5.000122c5.6399536 -3.3492432 10.055542 -7.9859924 13.246826 -13.910339c3.2070312 -5.9243164 4.810547 -12.527985 4.810547 -19.810944c0 -7.2829895 -1.6035156 -13.878723 -4.810547 -19.787262c-3.1912842 -5.924347 -7.6068726 -10.584808 -13.246826 -13.981415c-5.6241455 -3.396637 -11.880249 -5.09494 -18.76825 -5.09494z" fill-rule="evenodd"/><path stroke="#ffffff" stroke-width="3.0" stroke-linejoin="round" stroke-linecap="butt" d="m808.7477 342.24792c5.244995 0 10.023926 1.3349304 14.336853 4.0048523c4.3287354 2.6698914 7.70166 6.335083 10.118774 10.995544c2.4329224 4.644684 3.649353 9.881775 3.649353 15.711334c0 5.829529 -1.2164307 11.074554 -3.649353 15.735016c-2.4171143 4.6604614 -5.790039 8.301941 -10.118774 10.924469c-4.3129272 2.6066895 -9.091858 3.9100342 -14.336853 3.9100342c-5.244995 0 -10.008179 -1.3349304 -14.28949 -4.004822c-4.265503 -2.6698914 -7.6384277 -6.3272095 -10.118774 -10.971863c-2.4645386 -4.6604614 -3.6967773 -9.858093 -3.6967773 -15.592834c0 -5.8295593 1.2322388 -11.06665 3.6967773 -15.711334c2.4803467 -4.6604614 5.8532715 -8.325653 10.118774 -10.995544c4.281311 -2.6699219 9.044495 -4.0048523 14.28949 -4.0048523zm0 -8.151886c-6.8880615 0 -13.152039 1.6983032 -18.791992 5.09494c-5.6241455 3.3966064 -10.039734 8.057068 -13.246826 13.981415c-3.2070312 5.9085083 -4.810547 12.504272 -4.810547 19.787262c0 7.282959 1.6035156 13.886627 4.810547 19.810944c3.2070312 5.924347 7.6226196 10.561096 13.246826 13.910339c5.6399536 3.3334045 11.903931 5.000122 18.791992 5.000122c6.8880005 0 13.144104 -1.6667175 18.76825 -5.000122c5.6399536 -3.3492432 10.055542 -7.9859924 13.246826 -13.910339c3.2070312 -5.9243164 4.810547 -12.527985 4.810547 -19.810944c0 -7.2829895 -1.6035156 -13.878723 -4.810547 -19.787262c-3.1912842 -5.924347 -7.6068726 -10.584808 -13.246826 -13.981415c-5.6241455 -3.396637 -11.880249 -5.09494 -18.76825 -5.09494z" fill-rule="evenodd"/><path stroke="#ffffff" stroke-width="3.0" stroke-linejoin="round" stroke-linecap="butt" d="m898.29224 334.09604c-6.1138916 0.0947876 -11.429993 1.9668884 -15.948303 5.616272c-4.5182495 3.6335754 -7.8911743 8.215057 -10.118713 13.744446l0 -12.820251c0 -1.263855 -0.41082764 -2.306549 -1.2322998 -3.1280518c-0.82147217 -0.8215027 -1.8641357 -1.2322693 -3.1280518 -1.2322693c-1.263855 0 -2.3144531 0.4107666 -3.1517334 1.2322693c-0.8215332 0.8215027 -1.2322388 1.8641968 -1.2322388 3.1280518l0 65.23871c0 1.263855 0.41070557 2.306549 1.2322388 3.1280518c0.8372803 0.8215027 1.8878784 1.2322693 3.1517334 1.2322693c1.263916 0 2.3065796 -0.4107666 3.1280518 -1.2322693c0.82147217 -0.8215027 1.2322998 -1.8641968 1.2322998 -3.1280518l0 -35.972534c0 -4.470886 1.1374512 -8.886475 3.4124146 -13.246796c2.2907104 -4.3602905 5.2054443 -7.9227905 8.744263 -10.6874695c3.5388184 -2.780487 7.109192 -4.170746 10.711182 -4.170746c1.2480469 0 2.5751343 0.24487305 3.9812012 0.73461914c1.421814 0.4897461 2.36969 0.73461914 2.843628 0.73461914c1.0743408 0 1.9985352 -0.4107666 2.772583 -1.2322693c0.7741089 -0.8373108 1.1611938 -1.9352722 1.1611938 -3.2939148c0 -1.5482178 -0.7741089 -2.7094116 -2.3223267 -3.4835205c-1.5482788 -0.7741089 -3.2939453 -1.1611633 -5.2371216 -1.1611633z" fill-rule="evenodd"/><path stroke="#ffffff" stroke-width="3.0" stroke-linejoin="round" stroke-linecap="butt" d="m923.75354 312.3893c-1.9431763 0 -3.475586 0.46603394 -4.59729 1.3981323c-1.105835 0.9162903 -1.6588135 2.2512512 -1.6588135 4.0048523l0 1.4455261c0 1.7536011 0.52923584 3.088562 1.5877075 4.0048523c1.0742798 0.9162903 2.5830078 1.3744507 4.526184 1.3744507c1.9431763 0 3.4203491 -0.4581604 4.4313965 -1.3744507c1.0269165 -0.9162903 1.5403442 -2.2512512 1.5403442 -4.0048523l0 -1.4455261c0 -3.6019897 -1.9431763 -5.4029846 -5.829529 -5.4029846zm-0.14221191 22.13327c-1.2480469 0 -2.2907104 0.41867065 -3.1280518 1.2559814c-0.82147217 0.8215027 -1.2322388 1.8562927 -1.2322388 3.1043396l0 66.99231c0 1.263855 0.4107666 2.306549 1.2322388 3.1280518c0.8373413 0.8215027 1.8800049 1.2322693 3.1280518 1.2322693c1.263916 0 2.3065796 -0.4107666 3.1280518 -1.2322693c0.8373413 -0.8215027 1.2559814 -1.8641968 1.2559814 -3.1280518l0 -66.99231c0 -1.2480774 -0.41864014 -2.282837 -1.2559814 -3.1043396c-0.82147217 -0.8373108 -1.8641357 -1.2559814 -3.1280518 -1.2559814z" fill-rule="evenodd"/></g></g></svg>