<?xml version="1.0" encoding="utf-8"?>
<!-- Generator: Adobe Illustrator 24.1.2, SVG Export Plug-In . SVG Version: 6.00 Build 0)  -->
<svg version="1.1" id="Layer_1" xmlns="http://www.w3.org/2000/svg" xmlns:xlink="http://www.w3.org/1999/xlink" x="0px" y="0px"
	 width="145px" height="33px" viewBox="0 0 145 33" style="enable-background:new 0 0 145 33;" xml:space="preserve"><style>text{ font-family: 'Helvetica', 'Arial', sans-serif !important; }</style>
<style type="text/css">
	.st0{fill-rule:evenodd;clip-rule:evenodd;fill:#6387EF;}
</style>
<path class="st0" d="M73.5,0.7l7.3,4.2C80.9,5,81,5.1,81.1,5.2c0.1,0.1,0.1,0.3,0.1,0.4v6.5l-2.6-1.5l-5.5,3.2l-5.5-3.2L65,12.1V5.6
	c0-0.1,0-0.3,0.1-0.4c0.1-0.1,0.2-0.2,0.3-0.3l7.3-4.2c0.1-0.1,0.3-0.1,0.4-0.1C73.2,0.6,73.4,0.6,73.5,0.7z M81.2,13.2l-2.6-1.5
	l-5.5,3.2l-5.5-3.2L65,13.2v3l5.5,3.2v6.3l2.6,1.5l2.6-1.5v-6.3l5.5-3.2V13.2z M64,16.7v-3L58.3,17c-0.1,0.1-0.2,0.2-0.3,0.3
	c-0.1,0.1-0.1,0.3-0.1,0.4v8.4c0,0.1,0,0.3,0.1,0.4c0.1,0.1,0.2,0.2,0.3,0.3l7.3,4.2c0.1,0.1,0.3,0.1,0.4,0.1c0.1,0,0.3,0,0.4-0.1
	l5.7-3.2l-2.6-1.5v-6.3L64,16.7z M74,27.7l2.6-1.5v-6.3l5.5-3.1v-3l5.7,3.3c0.1,0.1,0.2,0.2,0.3,0.3c0.1,0.1,0.1,0.3,0.1,0.4v8.4
	c0,0.1,0,0.3-0.1,0.4c-0.1,0.1-0.2,0.2-0.3,0.3L80.5,31c-0.1,0.1-0.3,0.1-0.4,0.1c-0.1,0-0.3,0-0.4-0.1L74,27.7z M108.4,22.3
	c0.1,0,0.2,0,0.2,0c0.1,0,0.1,0.1,0.2,0.1l1.2,1.3c-0.6,0.8-1.4,1.4-2.3,1.8c-1,0.4-2.1,0.6-3.2,0.6c-1,0-2.1-0.2-3-0.6
	c-0.9-0.4-1.6-0.9-2.3-1.6c-0.6-0.7-1.1-1.5-1.4-2.4c-0.6-1.7-0.7-3.5-0.3-5.2c0.2-0.6,0.4-1.3,0.7-1.8c0.3-0.6,0.7-1.1,1.1-1.5
	c0.4-0.5,0.9-0.8,1.5-1.2c0.6-0.3,1.2-0.6,1.8-0.7c1.2-0.3,2.4-0.3,3.7-0.1c0.5,0.1,0.9,0.2,1.4,0.4c0.4,0.2,0.8,0.4,1.2,0.6
	c0.4,0.2,0.7,0.5,1,0.8l-1,1.4c-0.1,0.1-0.1,0.2-0.2,0.2c-0.1,0.1-0.3,0.1-0.4,0.1c-0.2,0-0.4-0.1-0.5-0.2c-0.2-0.1-0.4-0.2-0.6-0.4
	c-0.3-0.2-0.6-0.3-0.9-0.4c-0.5-0.1-0.9-0.2-1.4-0.2c-0.6,0-1.2,0.1-1.7,0.3c-0.5,0.2-1,0.6-1.3,1c-0.4,0.5-0.7,1-0.9,1.6
	c-0.2,0.7-0.3,1.4-0.3,2.1c0,0.7,0.1,1.5,0.3,2.1c0.2,0.6,0.5,1.1,0.9,1.6c0.4,0.4,0.8,0.8,1.4,1c0.5,0.2,1.1,0.3,1.7,0.3
	c0.3,0,0.6,0,1-0.1c0.3,0,0.5-0.1,0.8-0.2c0.2-0.1,0.5-0.2,0.7-0.3c0.2-0.1,0.5-0.3,0.7-0.5c0.1-0.1,0.2-0.1,0.2-0.2
	C108.2,22.3,108.3,22.3,108.4,22.3z M12.9,11.1v14.9H9.7v-6.4H3.1v6.4H0V11.1h3.1v6.3h6.6v-6.3H12.9z M24.3,13.5v3.8h5v2.3h-5v3.9
	h6.4v2.4h-9.6V11.1h9.6v2.4H24.3z M47.1,26.1v-2.5h-5.8V11.1h-3.1v14.9H47.1z M117,26h3.1V11H117V26z M145,11V26h-2.7v-9.2
	c0-0.2,0-0.4,0-0.6c0-0.2,0-0.4,0.1-0.7l-4.3,8.1c-0.1,0.2-0.2,0.4-0.4,0.5c-0.2,0.1-0.4,0.2-0.6,0.2h-0.4c-0.2,0-0.4-0.1-0.6-0.2
	c-0.2-0.1-0.3-0.3-0.4-0.5l-4.3-8.1c0,0.2,0,0.5,0.1,0.7c0,0.2,0,0.4,0,0.6V26h-2.7V11h2.4c0.1,0,0.2,0,0.4,0c0.1,0,0.2,0,0.3,0.1
	c0.1,0,0.2,0.1,0.2,0.1c0.1,0.1,0.1,0.2,0.2,0.3l4.2,8c0.1,0.2,0.3,0.5,0.4,0.7c0.1,0.3,0.2,0.5,0.3,0.8c0.1-0.3,0.2-0.5,0.3-0.8
	c0.1-0.3,0.2-0.5,0.4-0.8l4.2-7.9c0-0.1,0.1-0.2,0.2-0.3c0.1-0.1,0.1-0.1,0.2-0.1c0.1,0,0.2-0.1,0.3-0.1c0.1,0,0.2,0,0.4,0L145,11z"
	/>
</svg>
